# xmcd
#
# Track frame offsets: 
#        150
#        9405
#        18914
#        29009
#        39024
#        48766
#        60320
#        72601
#        82757
#        92753
#        103879
#        115516
#        125963
#        136929
#        146888
#        147365
#        156434
#        165928
#        168137
#        176312
#        185188
#        197521
#        209348
#        219560
#        230058
#        237523
#
# Disc length: 3289 seconds
#
# Revision: 0
# Processed by: cddbd v1.5.2PL0 Copyright (c) Steve Scherf et al.
# Submitted via: ExactAudioCopyFreeDBPlugin 1.0
#
DISCID=6b0cd71a
DTITLE=Willie Eagan - Come On - Early Recordings 1954 - 1958
DYEAR=2008
DGENRE=Blues
TTITLE0=Willie Eagan and His House Rockers - It's a Shame 
TTITLE1=Willie Eagan and His House Rockers - Willie's Boogie 
TTITLE2=Bernie Bridges &The Diggers - Reconsider Baby
TTITLE3=Willie Snow and The Diggers feat Lloyd Rowe - You Upset Me Baby 
TTITLE4=Two Crows and The Diggers feat Lloyd Rowe - Poison Ivy featuring
TTITLE4=Lloyd Rowe 
TTITLE5=Lloyd and Willie - Don't Know Where She Went 
TTITLE6=Lloyd and Willie - Potato Stomp
TTITLE7=Willie Eagan and His Orchestra - What A Shame
TTITLE8=Willie Eagan and His Orchestra - Wow Wow 
TTITLE9=Lorenzo Holden - Whipped Cream 
TTITLE10=Willie Eagan and His Orchestra - Sometimes I Wonder
TTITLE11=Willie Eagan and His Orchestra - Sad Sad Feeling
TTITLE12=Willie Eagan and His Orchestra - Come On Willie Egan COME ON Ly
TTITLE12=rics 
TTITLE13=Willie Eagan and His Orchestra - Oh Baby
TTITLE14=Willie Eagan and His Orchestra - She's Gone Away But (Tape Anno
TTITLE14=uncement)
TTITLE15=Willie Eagan and His Orchestra - She's Gone Away But (Take 3)
TTITLE16=Willie Eagan and His Orchestra - Willie's Blues 
TTITLE17=Willie Eagan and His Orchestra - I Can't Understand It (Tape An
TTITLE17=nouncement)
TTITLE18=Willie Eagan and His Orchestra - I Can't Understand It (Take  1
TTITLE18=)
TTITLE19=Willie Eagan and His Orchestra - Wear Your Black Dress
TTITLE20=Marvin and Johnny - Baby, Baby, Baby 
TTITLE21=Marvin and Johnny - Bye, Bye, Baby
TTITLE22=Little Willie Eagan and His Orchestra - Treat Me Right
TTITLE23=Little Willie Eagan and His Orchestra - You Must Be Foolin'
TTITLE24=Chittlins
TTITLE25=Rock and Roll Fever
EXTD=
EXTT0=
EXTT1=
EXTT2=
EXTT3=
EXTT4=
EXTT5=
EXTT6=
EXTT7=
EXTT8=
EXTT9=
EXTT10=
EXTT11=
EXTT12=
EXTT13=
EXTT14=
EXTT15=
EXTT16=
EXTT17=
EXTT18=
EXTT19=
EXTT20=
EXTT21=
EXTT22=
EXTT23=
EXTT24=
EXTT25=
PLAYORDER=
